<svg xmlns="http://www.w3.org/2000/svg" width="150" height="35" viewBox="0 0 150 35"><defs><style>.a{fill:#3721a6;}</style></defs><g transform="translate(751.13 -341.71)"><path class="a" d="M-330.474,365.408a13.825,13.825,0,0,0-14,13.945,13.825,13.825,0,0,0,14,13.945,13.825,13.825,0,0,0,14-13.945A13.825,13.825,0,0,0-330.474,365.408Zm0,21.635a7.357,7.357,0,0,1-7.52-7.69,7.357,7.357,0,0,1,7.52-7.69,7.357,7.357,0,0,1,7.52,7.69A7.357,7.357,0,0,1-330.474,387.043Z" transform="translate(-284.658 -16.588)"/><path class="a" d="M-720.066,370.694l-5.165,19.268-5.863-19.268h-5.3l1.946,6.183-4.343,14.05-5.368-20.233h-6.972l8.367,26.3h6.526l4.088-12.919,4.1,12.919h6.468l8.42-26.3Z" transform="translate(0 -20.289)"/><path class="a" d="M-584.367,378.8c-.25-7.762-5.824-13.4-13.253-13.4-8.211,0-14.171,5.865-14.171,13.945,0,8.211,5.92,13.945,14.4,13.945a12.918,12.918,0,0,0,9.216-3.316l-5.3-2.482a8.1,8.1,0,0,1-3.807.958,7.431,7.431,0,0,1-7.585-5.413l-.4-1.3h20.909Zm-20.938-1.5.4-1.3c1.012-3.269,3.578-5.07,7.224-5.07a6.636,6.636,0,0,1,6.844,5.1l.345,1.271Z" transform="translate(-97.538 -16.588)"/><path class="a" d="M-475.25,378.8c-.25-7.762-5.825-13.4-13.253-13.4-8.212,0-14.172,5.865-14.172,13.945,0,8.211,5.921,13.945,14.4,13.945a12.918,12.918,0,0,0,9.216-3.316l-5.3-2.482a8.1,8.1,0,0,1-3.806.958,7.43,7.43,0,0,1-7.585-5.413l-.4-1.3h20.909Zm-20.938-1.5.4-1.3c1.013-3.269,3.578-5.07,7.224-5.07a6.635,6.635,0,0,1,6.843,5.1l.346,1.271Z" transform="translate(-173.919 -16.588)"/><rect class="a" width="6.482" height="35" transform="translate(-642.444 341.71)"/></g></svg>