<svg xmlns="http://www.w3.org/2000/svg" width="180" height="53.334" viewBox="0 0 180 53.334"><defs><style>.a{fill:#a2a2a2;}.b{fill:#fff;}</style></defs><path class="a" d="M166.905,96.539H15.58c-.551,0-1.1,0-1.646,0-.46,0-.918.011-1.382.016a22.463,22.463,0,0,0-3.014.236,10.949,10.949,0,0,0-2.86.836A9.715,9.715,0,0,0,4.243,99.2a8.454,8.454,0,0,0-1.772,2.161,8.128,8.128,0,0,0-.94,2.537,15.486,15.486,0,0,0-.269,2.669c-.014.409-.015.819-.023,1.228v30.819c.008.415.009.816.023,1.229a15.487,15.487,0,0,0,.269,2.669,8.112,8.112,0,0,0,.94,2.539,8.42,8.42,0,0,0,1.772,2.153,9.459,9.459,0,0,0,2.435,1.571,10.959,10.959,0,0,0,2.86.841,22.684,22.684,0,0,0,3.014.236c.465.009.922.015,1.382.015.549,0,1.1,0,1.646,0H166.905c.54,0,1.089,0,1.631,0,.457,0,.928-.005,1.385-.015a22.4,22.4,0,0,0,3.008-.236,11.165,11.165,0,0,0,2.872-.841,9.494,9.494,0,0,0,2.432-1.571,8.663,8.663,0,0,0,1.776-2.153,8.133,8.133,0,0,0,.933-2.539,15.959,15.959,0,0,0,.278-2.669c.006-.413.006-.815.006-1.229.012-.484.012-.965.012-1.457V109.254c0-.488,0-.973-.012-1.456,0-.409,0-.819-.006-1.228a15.959,15.959,0,0,0-.278-2.669,8.15,8.15,0,0,0-.933-2.537,8.7,8.7,0,0,0-1.776-2.161A9.752,9.752,0,0,0,175.8,97.63a11.154,11.154,0,0,0-2.872-.836,22.182,22.182,0,0,0-3.008-.236c-.457-.005-.928-.013-1.385-.016-.542,0-1.091,0-1.631,0Z" transform="translate(-1.239 -96.539)"/><path d="M13.521,148.414c-.46,0-.907-.005-1.364-.015a21.659,21.659,0,0,1-2.816-.217,9.667,9.667,0,0,1-2.5-.731,8.189,8.189,0,0,1-2.1-1.356A7.21,7.21,0,0,1,3.2,144.234a7.035,7.035,0,0,1-.818-2.209,14.85,14.85,0,0,1-.252-2.5c-.009-.281-.021-1.217-.021-1.217v-30.8s.014-.921.021-1.192a14.805,14.805,0,0,1,.25-2.5A7.1,7.1,0,0,1,3.2,101.6a7.308,7.308,0,0,1,1.531-1.864,8.419,8.419,0,0,1,2.112-1.363,9.582,9.582,0,0,1,2.491-.725,21.257,21.257,0,0,1,2.827-.219l1.359-.016H168.367l1.376.016a21.027,21.027,0,0,1,2.8.217,9.806,9.806,0,0,1,2.518.731,8.36,8.36,0,0,1,2.1,1.355A7.5,7.5,0,0,1,178.7,101.6a7.049,7.049,0,0,1,.806,2.2,15.347,15.347,0,0,1,.262,2.516c0,.377,0,.783,0,1.187.012.5.012.976.012,1.456v27.905c0,.484,0,.956-.012,1.433,0,.433,0,.831-.006,1.239a15.05,15.05,0,0,1-.258,2.472,7.027,7.027,0,0,1-.814,2.227,7.447,7.447,0,0,1-1.529,1.848,8.213,8.213,0,0,1-2.109,1.363,9.6,9.6,0,0,1-2.513.733,21.4,21.4,0,0,1-2.816.217c-.441.009-.9.015-1.352.015l-1.633,0Z" transform="translate(-0.948 -96.247)"/><g transform="translate(17.754 8.913)"><g transform="translate(0 0.407)"><g transform="translate(0)"><path class="b" d="M32.52,119.623a7.131,7.131,0,0,1,3.393-5.979,7.294,7.294,0,0,0-5.747-3.106c-2.418-.255-4.762,1.447-5.995,1.447-1.256,0-3.154-1.423-5.2-1.381a7.655,7.655,0,0,0-6.441,3.928c-2.785,4.823-.709,11.909,1.96,15.806,1.335,1.91,2.895,4.041,4.937,3.966,2-.084,2.743-1.274,5.154-1.274,2.389,0,3.089,1.274,5.171,1.226,2.143-.035,3.494-1.917,4.781-3.844a15.758,15.758,0,0,0,2.187-4.453A6.888,6.888,0,0,1,32.52,119.623Z" transform="translate(-11.21 -102.947)"/><path class="b" d="M24.711,110.286a7.023,7.023,0,0,0,1.606-5.027,7.135,7.135,0,0,0-4.62,2.39,6.679,6.679,0,0,0-1.647,4.84A5.906,5.906,0,0,0,24.711,110.286Z" transform="translate(-7.336 -105.259)"/></g><g transform="translate(35.161 13.178)"><path class="b" d="M47.006,127.665H40.191L38.553,132.5H35.666l6.456-17.883h3L51.579,132.5H48.642Zm-6.11-2.229h5.4l-2.664-7.845H43.56Z" transform="translate(-35.666 -114.319)"/><path class="b" d="M60.151,124.542c0,4.052-2.167,6.656-5.441,6.656a4.42,4.42,0,0,1-4.1-2.281h-.062v6.457H47.87V118.023h2.591v2.169h.049a4.625,4.625,0,0,1,4.152-2.306C57.971,117.886,60.151,120.5,60.151,124.542Zm-2.751,0c0-2.64-1.364-4.375-3.445-4.375-2.045,0-3.42,1.773-3.42,4.375,0,2.628,1.375,4.386,3.42,4.386C56.037,128.928,57.4,127.206,57.4,124.542Z" transform="translate(-30.296 -112.88)"/><path class="b" d="M70.116,124.542c0,4.052-2.169,6.656-5.441,6.656a4.424,4.424,0,0,1-4.1-2.281h-.062v6.457H57.835V118.023h2.591v2.169h.049a4.625,4.625,0,0,1,4.152-2.306C67.936,117.886,70.116,120.5,70.116,124.542Zm-2.751,0c0-2.64-1.364-4.375-3.445-4.375-2.045,0-3.42,1.773-3.42,4.375,0,2.628,1.375,4.386,3.42,4.386C66,128.928,67.365,127.206,67.365,124.542Z" transform="translate(-25.91 -112.88)"/><path class="b" d="M73.786,127.608c.2,1.773,1.921,2.938,4.276,2.938,2.255,0,3.878-1.165,3.878-2.763,0-1.388-.978-2.219-3.3-2.789l-2.317-.557c-3.283-.793-4.808-2.329-4.808-4.821,0-3.085,2.689-5.2,6.508-5.2,3.779,0,6.368,2.12,6.456,5.2h-2.7c-.161-1.784-1.637-2.861-3.793-2.861s-3.63,1.09-3.63,2.676c0,1.264.942,2.009,3.247,2.578l1.97.484c3.669.868,5.193,2.342,5.193,4.958,0,3.345-2.664,5.441-6.9,5.441-3.966,0-6.643-2.046-6.816-5.281Z" transform="translate(-20.096 -114.41)"/><path class="b" d="M85.986,115.839v3.085h2.48v2.12h-2.48v7.187c0,1.116.5,1.637,1.587,1.637a8.606,8.606,0,0,0,.88-.062v2.107a7.424,7.424,0,0,1-1.486.124c-2.64,0-3.669-.992-3.669-3.521v-7.472H81.4v-2.12h1.9v-3.085Z" transform="translate(-15.54 -113.781)"/><path class="b" d="M87.3,124.549c0-4.1,2.415-6.679,6.184-6.679s6.185,2.578,6.185,6.679-2.393,6.68-6.185,6.68S87.3,128.663,87.3,124.549Zm9.641,0c0-2.814-1.289-4.474-3.458-4.474s-3.458,1.673-3.458,4.474c0,2.825,1.289,4.474,3.458,4.474S96.945,127.374,96.945,124.549Z" transform="translate(-12.942 -112.887)"/><path class="b" d="M97.425,118.023h2.552v2.219h.062a3.111,3.111,0,0,1,3.136-2.356,4.139,4.139,0,0,1,.917.1v2.5a3.732,3.732,0,0,0-1.2-.161,2.7,2.7,0,0,0-2.789,3v7.733H97.425Z" transform="translate(-8.489 -112.88)"/><path class="b" d="M114.217,127.239c-.36,2.366-2.664,3.99-5.613,3.99-3.793,0-6.148-2.542-6.148-6.619s2.367-6.741,6.035-6.741c3.606,0,5.875,2.478,5.875,6.431v.916h-9.209v.163a3.4,3.4,0,0,0,3.508,3.692,2.948,2.948,0,0,0,3.01-1.833Zm-9.046-3.891h6.518a3.135,3.135,0,0,0-3.2-3.309A3.3,3.3,0,0,0,105.171,123.348Z" transform="translate(-6.275 -112.887)"/></g></g><g transform="translate(36.952)"><path class="b" d="M40.013,105.27c2.549,0,4.044,1.565,4.044,4.27,0,2.745-1.485,4.322-4.044,4.322h-3.1V105.27Zm-1.77,7.377h1.62c1.8,0,2.834-1.12,2.834-3.09,0-1.941-1.053-3.073-2.834-3.073h-1.62Z" transform="translate(-36.91 -104.847)"/><path class="b" d="M42.919,110.011c0-2.091,1.168-3.364,3.06-3.364s3.057,1.273,3.057,3.364-1.162,3.37-3.057,3.37S42.919,112.113,42.919,110.011Zm4.8,0c0-1.405-.631-2.228-1.74-2.228s-1.738.822-1.738,2.228.626,2.232,1.738,2.232S47.719,111.422,47.719,110.011Z" transform="translate(-34.266 -104.241)"/><path class="b" d="M55.014,113.217H53.686l-1.339-4.775h-.1l-1.335,4.775H49.6l-1.787-6.483h1.3l1.161,4.948h.1l1.332-4.948h1.228l1.333,4.948h.1l1.156-4.948h1.279Z" transform="translate(-32.114 -104.202)"/><path class="b" d="M55.092,106.772h1.233v1.03h.1a1.94,1.94,0,0,1,1.935-1.155,2.109,2.109,0,0,1,2.245,2.411v4.2H59.32V109.38c0-1.043-.454-1.561-1.4-1.561a1.488,1.488,0,0,0-1.548,1.643v3.793h-1.28Z" transform="translate(-28.909 -104.241)"/><path class="b" d="M60.333,104.976h1.279v9.015H60.333Z" transform="translate(-26.603 -104.976)"/><path class="b" d="M62.457,110.011c0-2.091,1.166-3.364,3.06-3.364s3.056,1.273,3.056,3.364-1.162,3.37-3.056,3.37S62.457,112.113,62.457,110.011Zm4.8,0c0-1.405-.632-2.228-1.74-2.228s-1.738.822-1.738,2.228.625,2.232,1.738,2.232S67.257,111.422,67.257,110.011Z" transform="translate(-25.668 -104.241)"/><path class="b" d="M67.64,111.422c0-1.166.868-1.84,2.411-1.935l1.757-.1v-.56c0-.685-.452-1.071-1.328-1.071-.714,0-1.208.262-1.351.72H67.891c.13-1.113,1.178-1.827,2.648-1.827,1.626,0,2.543.809,2.543,2.179v4.43H71.851v-.91h-.1a2.183,2.183,0,0,1-1.947,1.018A1.959,1.959,0,0,1,67.64,111.422Zm4.168-.554v-.541l-1.583.1c-.894.06-1.3.364-1.3.936s.507.923,1.2.923A1.529,1.529,0,0,0,71.808,110.868Z" transform="translate(-23.387 -104.241)"/><path class="b" d="M72.587,110.746c0-2.049,1.053-3.347,2.691-3.347a2.136,2.136,0,0,1,1.989,1.138h.1v-3.561h1.28v9.015H77.415v-1.024h-.1a2.251,2.251,0,0,1-2.036,1.132C73.63,114.1,72.587,112.8,72.587,110.746Zm1.322,0c0,1.375.648,2.2,1.732,2.2s1.745-.84,1.745-2.2-.674-2.2-1.745-2.2S73.909,109.383,73.909,110.746Z" transform="translate(-21.21 -104.976)"/><path class="b" d="M80.469,110.011c0-2.091,1.166-3.364,3.06-3.364s3.056,1.273,3.056,3.364-1.162,3.37-3.056,3.37S80.469,112.113,80.469,110.011Zm4.8,0c0-1.405-.632-2.228-1.74-2.228s-1.738.822-1.738,2.228.625,2.232,1.738,2.232S85.269,111.422,85.269,110.011Z" transform="translate(-17.742 -104.241)"/><path class="b" d="M85.908,106.772h1.233v1.03h.1a1.94,1.94,0,0,1,1.935-1.155,2.108,2.108,0,0,1,2.244,2.411v4.2H90.136V109.38c0-1.043-.454-1.561-1.4-1.561a1.488,1.488,0,0,0-1.548,1.643v3.793h-1.28Z" transform="translate(-15.348 -104.241)"/><path class="b" d="M95.46,105.612v1.645h1.405v1.079H95.46v3.334c0,.68.279.976.917.976a4.363,4.363,0,0,0,.488-.029v1.066a4.282,4.282,0,0,1-.7.065c-1.423,0-1.99-.5-1.99-1.75v-3.662h-1.03v-1.079h1.03v-1.645Z" transform="translate(-12.162 -104.696)"/><path class="b" d="M96.943,104.976h1.269v3.573h.1a1.993,1.993,0,0,1,1.977-1.161,2.134,2.134,0,0,1,2.232,2.416v4.186h-1.28v-3.869c0-1.037-.482-1.561-1.387-1.561a1.515,1.515,0,0,0-1.633,1.645v3.786h-1.28Z" transform="translate(-10.492 -104.976)"/><path class="b" d="M107.774,111.506a2.632,2.632,0,0,1-2.81,1.875c-1.858,0-3-1.273-3-3.347s1.161-3.387,2.99-3.387c1.8,0,2.893,1.233,2.893,3.269v.446h-4.579v.072A1.714,1.714,0,0,0,105,112.292a1.557,1.557,0,0,0,1.544-.786Zm-4.5-2.09h3.275a1.564,1.564,0,0,0-1.6-1.681A1.659,1.659,0,0,0,103.272,109.416Z" transform="translate(-8.28 -104.241)"/></g></g></svg>