<svg xmlns="http://www.w3.org/2000/svg" xmlns:xlink="http://www.w3.org/1999/xlink" width="180" height="53.334" viewBox="0 0 180 53.334"><defs><style>.a{fill:#000203;}.b{fill:#909091;}.c,.j{fill:#fff;}.d{fill:url(#a);}.e{fill:url(#b);}.f{fill:url(#c);}.g{fill:url(#d);}.h,.i{fill:#020100;}.h{opacity:0.2;}.h,.i,.j{isolation:isolate;}.i{opacity:0.12;}.j{opacity:0.25;}</style><linearGradient id="a" x1="0.915" y1="-6.352" x2="-0.383" y2="-7.021" gradientUnits="objectBoundingBox"><stop offset="0" stop-color="#2a89c6"/><stop offset="0.007" stop-color="#298ac7"/><stop offset="0.26" stop-color="#00abe4"/><stop offset="0.512" stop-color="#31b4e5"/><stop offset="0.76" stop-color="#4fb9dd"/><stop offset="1" stop-color="#58bbdb"/></linearGradient><linearGradient id="b" x1="1.076" y1="-20.903" x2="-1.305" y2="-20.903" gradientUnits="objectBoundingBox"><stop offset="0" stop-color="#ffdb00"/><stop offset="0.409" stop-color="#ffad00"/><stop offset="0.775" stop-color="#f88f00"/><stop offset="1" stop-color="#f58500"/></linearGradient><linearGradient id="c" x1="0.862" y1="-14.415" x2="-0.501" y2="-16.184" gradientUnits="objectBoundingBox"><stop offset="0" stop-color="#e72931"/><stop offset="1" stop-color="#bb0c56"/></linearGradient><linearGradient id="d" x1="-0.188" y1="-11.694" x2="0.421" y2="-12.484" gradientUnits="objectBoundingBox"><stop offset="0" stop-color="#38915e"/><stop offset="0.068" stop-color="#38995e"/><stop offset="0.476" stop-color="#53aa51"/><stop offset="0.801" stop-color="#66af4f"/><stop offset="1" stop-color="#6cb14f"/></linearGradient></defs><rect class="a" width="180" height="53.333" rx="7" transform="translate(0 0)"/><g transform="translate(0 0)"><path class="b" d="M324.236,97.606a5.606,5.606,0,0,1,5.6,5.6v40a5.606,5.606,0,0,1-5.6,5.6H157.57a5.606,5.606,0,0,1-5.6-5.6v-40a5.606,5.606,0,0,1,5.6-5.6H324.236m0-1.067H157.57a6.686,6.686,0,0,0-6.667,6.667v40a6.686,6.686,0,0,0,6.667,6.667H324.236a6.686,6.686,0,0,0,6.667-6.667v-40a6.686,6.686,0,0,0-6.667-6.667Z" transform="translate(-150.903 -96.539)"/></g><g transform="translate(55.136 9.155)"><path class="c" d="M200.343,107.908a3.611,3.611,0,0,1-.993,2.671,3.879,3.879,0,0,1-2.939,1.184,4.179,4.179,0,1,1,0-8.357,4.135,4.135,0,0,1,1.641.335,3.308,3.308,0,0,1,1.252.893l-.7.7a2.7,2.7,0,0,0-2.189-.949,3.2,3.2,0,1,0,2.235,5.5,2.509,2.509,0,0,0,.669-1.62h-2.9V107.3h3.876A3.429,3.429,0,0,1,200.343,107.908Z" transform="translate(-192.255 -103.405)"/><path class="c" d="M196.411,111.862a4.279,4.279,0,1,1,0-8.557,4.245,4.245,0,0,1,1.681.343,3.423,3.423,0,0,1,1.289.921l.059.07-.846.846-.07-.084a2.618,2.618,0,0,0-2.113-.914,3.1,3.1,0,1,0,2.164,5.327,2.369,2.369,0,0,0,.63-1.449h-2.894V107.2h4.06l.015.082a3.508,3.508,0,0,1,.058.622,3.725,3.725,0,0,1-1.023,2.741A3.99,3.99,0,0,1,196.411,111.862Zm0-8.357a4.079,4.079,0,1,0,0,8.157,3.8,3.8,0,0,0,2.866-1.153,3.534,3.534,0,0,0,.966-2.6,3.241,3.241,0,0,0-.041-.5h-3.691v.761h2.913l-.009.108a2.617,2.617,0,0,1-.7,1.682,3.293,3.293,0,1,1-2.306-5.668,2.823,2.823,0,0,1,2.194.9l.562-.562a3.276,3.276,0,0,0-1.155-.8A4.046,4.046,0,0,0,196.411,103.5Z" transform="translate(-192.255 -103.405)"/><path class="c" d="M204.1,104.522h-3.643v2.536h3.285v.961h-3.285v2.536H204.1v.984h-4.671v-8H204.1Z" transform="translate(-189.864 -103.36)"/><path class="c" d="M199.327,103.439H204.2v1.183h-3.643v2.336h3.285v1.161h-3.285v2.336H204.2v1.184h-4.871Zm4.671.2h-4.471v7.8H204v-.784h-3.643v-2.736h3.285v-.761h-3.285v-2.736H204Z" transform="translate(-189.864 -103.36)"/><path class="c" d="M207,111.539h-1.028v-7.017h-2.235v-.983h5.5v.983H207Z" transform="translate(-188.429 -103.36)"/><path class="c" d="M207.1,111.639h-1.228v-7.017h-2.235v-1.183h5.7v1.183H207.1Zm-1.028-.2h.828v-7.017h2.235v-.783h-5.3v.783h2.235Z" transform="translate(-188.429 -103.36)"/><path class="c" d="M210.84,111.539v-8h1.028v8Z" transform="translate(-186.06 -103.36)"/><path class="c" d="M211.968,111.639H210.74v-8.2h1.228Zm-1.028-.2h.828v-7.8h-.828Z" transform="translate(-186.06 -103.36)"/><path class="c" d="M215.847,111.539h-1.029v-7.017h-2.233v-.983h5.5v.983h-2.235Z" transform="translate(-185.479 -103.36)"/><path class="c" d="M215.947,111.639h-1.229v-7.017h-2.233v-1.183h5.7v1.183h-2.235Zm-1.029-.2h.829v-7.017h2.235v-.783h-5.3v.783h2.233Z" transform="translate(-185.479 -103.36)"/><path class="c" d="M226.273,110.549a4.152,4.152,0,0,1-5.867,0,4.325,4.325,0,0,1,0-5.932,4.143,4.143,0,0,1,5.861.005,4.307,4.307,0,0,1,.005,5.927Zm-5.107-.669a3.076,3.076,0,0,0,4.345,0,3.408,3.408,0,0,0,0-4.592,3.072,3.072,0,0,0-4.345,0,3.412,3.412,0,0,0,0,4.592Z" transform="translate(-183.263 -103.405)"/><path class="c" d="M223.34,111.862a4.034,4.034,0,0,1-3.005-1.244,4.425,4.425,0,0,1,0-6.071,4.243,4.243,0,0,1,6,.005,4.407,4.407,0,0,1,.005,6.066A4.038,4.038,0,0,1,223.34,111.862Zm0-8.357a3.844,3.844,0,0,0-2.862,1.182,4.225,4.225,0,0,0,0,5.793,4.053,4.053,0,0,0,5.723,0,4.207,4.207,0,0,0-.005-5.787A3.845,3.845,0,0,0,223.34,103.5Zm0,7.373a3.045,3.045,0,0,1-2.245-.928,3.512,3.512,0,0,1,0-4.733,3.172,3.172,0,0,1,4.488,0,3.508,3.508,0,0,1,0,4.732A3.039,3.039,0,0,1,223.34,110.878Zm0-6.391a2.852,2.852,0,0,0-2.1.87,3.313,3.313,0,0,0,0,4.452,2.976,2.976,0,0,0,4.2,0,3.309,3.309,0,0,0,0-4.451A2.846,2.846,0,0,0,223.34,104.488Z" transform="translate(-183.263 -103.405)"/><path class="c" d="M226.478,111.539v-8h1.251l3.888,6.223h.044l-.044-1.541v-4.681h1.029v8h-1.073l-4.068-6.525h-.044l.044,1.541v4.984Z" transform="translate(-180.847 -103.36)"/><path class="c" d="M232.746,111.639h-1.229l-3.948-6.333.036,1.246v5.087h-1.227v-8.2h1.406l3.768,6.031-.036-1.247v-4.784h1.229Zm-1.118-.2h.918v-7.8h-.829v4.581l.047,1.641h-.2l-3.888-6.223h-1.1v7.8h.827v-4.884l-.047-1.641h.2Z" transform="translate(-180.847 -103.36)"/></g><path class="c" d="M228.069,119.858a5.671,5.671,0,1,0,5.693,5.671A5.59,5.59,0,0,0,228.069,119.858Zm0,9.108a3.445,3.445,0,1,1,3.2-3.437A3.281,3.281,0,0,1,228.069,128.966Zm-12.417-9.108a5.671,5.671,0,1,0,5.692,5.671A5.59,5.59,0,0,0,215.652,119.858Zm0,9.108a3.445,3.445,0,1,1,3.2-3.437A3.281,3.281,0,0,1,215.652,128.966ZM200.88,121.6V124h5.757a5.013,5.013,0,0,1-1.311,3.028,5.889,5.889,0,0,1-4.447,1.761,6.4,6.4,0,0,1,0-12.8,6.139,6.139,0,0,1,4.34,1.719l1.7-1.7a8.391,8.391,0,0,0-6.036-2.428,8.808,8.808,0,1,0,0,17.615,8.054,8.054,0,0,0,6.144-2.471,8.673,8.673,0,0,0,1.955-7.132Zm60.411,1.869a5.268,5.268,0,0,0-4.855-3.609,5.389,5.389,0,0,0-5.348,5.671,5.55,5.55,0,0,0,5.628,5.672,5.643,5.643,0,0,0,4.725-2.513l-1.933-1.289a3.238,3.238,0,0,1-2.792,1.568,2.884,2.884,0,0,1-2.749-1.719l7.583-3.136Zm-7.732,1.891a3.109,3.109,0,0,1,2.964-3.308,2.2,2.2,0,0,1,2.105,1.2Zm-6.165,5.5h2.492V114.187h-2.492Zm-4.081-9.731h-.087a3.924,3.924,0,0,0-2.985-1.268,5.677,5.677,0,0,0,0,11.343,3.866,3.866,0,0,0,2.985-1.289h.087v.816c0,2.169-1.16,3.329-3.029,3.329a3.137,3.137,0,0,1-2.856-2.019l-2.171.9a5.407,5.407,0,0,0,5.027,3.351c2.921,0,5.392-1.719,5.392-5.908V120.2h-2.363Zm-2.857,7.84a3.449,3.449,0,0,1,0-6.873,3.464,3.464,0,0,1,0,6.873Zm32.508-14.779H267v16.669h2.488v-6.316h3.473a5.184,5.184,0,1,0,0-10.353Zm.064,8.035H269.49v-5.715h3.537a2.858,2.858,0,1,1,0,5.715Zm15.376-2.395a4.67,4.67,0,0,0-4.439,2.552l2.208.923a2.357,2.357,0,0,1,2.273-1.223,2.4,2.4,0,0,1,2.616,2.144v.172a5.5,5.5,0,0,0-2.595-.643c-2.38,0-4.8,1.308-4.8,3.752,0,2.231,1.951,3.667,4.139,3.667a3.51,3.51,0,0,0,3.173-1.629h.085v1.287h2.4v-6.391C293.464,121.479,291.255,119.827,288.4,119.827Zm-.3,9.136c-.815,0-1.952-.408-1.952-1.416,0-1.287,1.416-1.78,2.637-1.78a4.417,4.417,0,0,1,2.273.559A3.016,3.016,0,0,1,288.1,128.963Zm14.111-8.771-2.853,7.227h-.085l-2.959-7.227h-2.681l4.439,10.1-2.529,5.619h2.595l6.84-15.719ZM279.8,130.857h2.487V114.187H279.8Z" transform="translate(-137.222 -90.856)"/><g transform="translate(13.296 9.521)"><path class="d" d="M161.492,104.1a2.67,2.67,0,0,0-.617,1.873v29.488a2.67,2.67,0,0,0,.617,1.873l.1.1,16.519-16.519v-.389L161.591,104Z" transform="translate(-160.875 -103.571)"/><path class="e" d="M179.306,123.668,173.8,118.16v-.389l5.507-5.508.125.071,6.523,3.707c1.864,1.059,1.864,2.792,0,3.851l-6.523,3.707Z" transform="translate(-156.566 -100.818)"/><path class="f" d="M183.587,122.172l-5.632-5.632-16.617,16.617a2.17,2.17,0,0,0,2.771.081l19.479-11.067" transform="translate(-160.721 -99.392)"/><path class="g" d="M183.587,115.195l-19.479-11.068a2.169,2.169,0,0,0-2.771.083l16.617,16.617Z" transform="translate(-160.721 -103.679)"/><g transform="translate(0 22.656)"><path class="h" d="M183.462,120.671l-19.353,11a2.222,2.222,0,0,1-2.671.015h0l-.1.1h0l.1.1h0a2.218,2.218,0,0,0,2.671-.015l19.479-11.067Z" transform="translate(-160.721 -120.671)"/><path class="i" d="M161.492,129.325a2.67,2.67,0,0,1-.617-1.873v.195a2.67,2.67,0,0,0,.617,1.873l.1-.1Z" transform="translate(-160.875 -118.411)"/></g><path class="i" d="M184.579,118.269l-6.648,3.779.125.124,6.523-3.707a2.341,2.341,0,0,0,1.4-1.925h0A2.484,2.484,0,0,1,184.579,118.269Z" transform="translate(-155.19 -99.392)"/><path class="j" d="M164.263,104.323l26,14.773a2.483,2.483,0,0,1,1.4,1.731h0a2.341,2.341,0,0,0-1.4-1.925l-26-14.773c-1.863-1.059-3.388-.18-3.388,1.955v.195C160.875,104.144,162.4,103.264,164.263,104.323Z" transform="translate(-160.875 -103.679)"/></g></svg>