<svg xmlns="http://www.w3.org/2000/svg" xmlns:xlink="http://www.w3.org/1999/xlink" width="580.803" height="563.059" viewBox="0 0 580.803 563.059"><defs><style>.a,.i{fill:#3721a5;}.b{fill:#efecfb;}.c{fill:#fff;font-size:67px;}.c,.i{font-family:NeuzeitGro-Bol, Neuzeit Grotesk;}.d{fill:#b9a8ff;}.e{fill:url(#a);}.f{fill:url(#b);}.g{fill:#04e9d7;}.h{fill:#b3b3b3;}.i{font-size:44px;}</style><linearGradient id="a" x1="0.5" x2="0.5" y2="1" gradientUnits="objectBoundingBox"><stop offset="0" stop-color="#5a41e6"/><stop offset="1" stop-color="#140064"/></linearGradient><linearGradient id="b" x1="0.5" x2="0.5" y2="1" gradientUnits="objectBoundingBox"><stop offset="0" stop-color="#705ce4"/><stop offset="1" stop-color="#140064"/></linearGradient></defs><g transform="translate(2398.803 720)"><g transform="translate(-2444.366 -744.108)"><g transform="translate(46.063 48.46)"><path class="a" d="M-.5-.5H41.289V17.736H-.5ZM40.289.5H.5V16.736H40.289Z" transform="translate(22.753 351.225)"/><path class="a" d="M-.5-.5H41.289V17.736H-.5ZM40.289.5H.5V16.736H40.289Z" transform="translate(0 372.959)"/><path class="a" d="M-.5-.5H41.289V17.736H-.5ZM40.289.5H.5V16.736H40.289Z"/><path class="a" d="M-.5-.5H41.289V17.736H-.5ZM40.289.5H.5V16.736H40.289Z" transform="translate(515.692)"/><path class="a" d="M-.5-.5H41.289V17.736H-.5ZM40.289.5H.5V16.736H40.289Z" transform="translate(492.939 21.734)"/><path class="a" d="M-.5-.5H41.289V17.736H-.5ZM40.289.5H.5V16.736H40.289Z" transform="translate(388.473 223.375)"/><path class="a" d="M-.5-.5H41.289V17.736H-.5ZM40.289.5H.5V16.736H40.289Z" transform="translate(365.72 245.109)"/><path class="a" d="M-.5-.5H41.289V17.736H-.5ZM40.289.5H.5V16.736H40.289Z" transform="translate(343.056 223.375)"/><path class="a" d="M-.5-.5H41.289V17.736H-.5ZM40.289.5H.5V16.736H40.289Z" transform="translate(515.692 372.959)"/><path class="a" d="M-.5-.5H41.289V17.736H-.5ZM40.289.5H.5V16.736H40.289Z" transform="translate(169.133 51.255)"/><g transform="translate(29.629 67.37)"><path class="a" d="M435.521,193.7l8.032-12.948-3.965-2.457a3.623,3.623,0,0,1-1.682-3.408,20.754,20.754,0,0,0,.072-2.277,3.619,3.619,0,0,1,1.891-3.288l4.111-2.2-7.205-13.432-4.109,2.2a3.619,3.619,0,0,1-3.785-.243,21.543,21.543,0,0,0-1.937-1.2,3.622,3.622,0,0,1-1.909-3.285l.147-4.663-15.23-.473-.141,4.68a3.623,3.623,0,0,1-2.124,3.152c-.337.16-.67.329-1,.506s-.656.362-.974.555a3.614,3.614,0,0,1-3.783.027l-3.995-2.474L389.9,165.42l3.973,2.465a3.626,3.626,0,0,1,1.678,3.411,21.317,21.317,0,0,0-.075,2.269,3.619,3.619,0,0,1-1.89,3.284l-4.112,2.2,7.2,13.433,4.112-2.2a3.618,3.618,0,0,1,3.781.242,20.906,20.906,0,0,0,1.932,1.194A3.623,3.623,0,0,1,408.417,195l-.145,4.674,15.23.473.145-4.676a3.619,3.619,0,0,1,2.119-3.142q.507-.239,1.01-.509c.33-.177.656-.362.974-.555a3.63,3.63,0,0,1,3.8-.026Zm-12.894-9.616a12.481,12.481,0,1,1,5.108-16.9A12.472,12.472,0,0,1,422.627,184.087Z" transform="translate(49.429 -78.401)"/><path class="a" d="M113.827,301.242l8.032-12.948-3.966-2.457a3.619,3.619,0,0,1-1.681-3.408,21.489,21.489,0,0,0,.072-2.278,3.62,3.62,0,0,1,1.89-3.287l4.111-2.2-7.2-13.432-4.111,2.2a3.619,3.619,0,0,1-3.785-.244,20.85,20.85,0,0,0-1.937-1.2,3.625,3.625,0,0,1-1.909-3.287l.149-4.662-15.23-.473-.142,4.68a3.624,3.624,0,0,1-2.123,3.152q-.505.239-1,.5c-.33.177-.656.363-.974.555a3.614,3.614,0,0,1-3.783.029l-3.995-2.475-8.032,12.949,3.973,2.465a3.622,3.622,0,0,1,1.678,3.411,20.964,20.964,0,0,0-.074,2.269,3.62,3.62,0,0,1-1.891,3.284l-4.112,2.2,7.2,13.433,4.112-2.2a3.62,3.62,0,0,1,3.782.241,21.156,21.156,0,0,0,1.931,1.192,3.623,3.623,0,0,1,1.913,3.285l-.143,4.674,15.229.473.146-4.676a3.616,3.616,0,0,1,2.117-3.142c.338-.16.675-.33,1.01-.509s.656-.363.975-.555a3.627,3.627,0,0,1,3.8-.026Zm-12.9-9.616a12.482,12.482,0,1,1,5.109-16.9A12.472,12.472,0,0,1,100.931,291.626Z" transform="translate(-67.78 -39.219)"/><path class="a" d="M225.989,110.483l-5.335-9.245-2.83,1.634a2.537,2.537,0,0,1-2.66-.09,14.9,14.9,0,0,0-1.382-.8,2.534,2.534,0,0,1-1.4-2.255V96.46H201.7v3.268a2.534,2.534,0,0,1-1.4,2.255,14.907,14.907,0,0,0-1.382.8,2.54,2.54,0,0,1-2.66.09l-2.83-1.634-5.335,9.245,2.842,1.637a2.54,2.54,0,0,1,1.243,2.355q-.02.391-.02.786t.02.786a2.53,2.53,0,0,1-1.235,2.344l-2.85,1.647,5.335,9.246,2.838-1.636a2.537,2.537,0,0,1,2.66.093,14.663,14.663,0,0,0,1.377.8,2.537,2.537,0,0,1,1.4,2.255v3.269h10.679v-3.269a2.537,2.537,0,0,1,1.4-2.255,14.472,14.472,0,0,0,1.375-.8,2.54,2.54,0,0,1,2.662-.093l2.838,1.636,5.335-9.246-2.838-1.637a2.536,2.536,0,0,1-1.239-2.348c.014-.262.02-.525.02-.791s-.007-.525-.02-.786a2.543,2.543,0,0,1,1.243-2.356Zm-10.205,4.778a8.745,8.745,0,1,1-8.74-8.748A8.738,8.738,0,0,1,215.784,115.261Z" transform="translate(-23.946 -96.46)"/></g></g><g transform="translate(113.984 43.294)"><g transform="translate(0.382 63.976)"><path class="b" d="M180.063,275.663l-8.471-33.331-66.9,17-8.842-34.791,53.466-121.851,26.519-6.74,25.783,101.451,21.409-5.441,8.9,35.034-21.409,5.441,8.471,33.331Zm-45.839-61.131,33.087-8.408-10.943-43.063Z" transform="translate(-95.846 -88.083)"/><path class="b" d="M333.014,166.5a89.437,89.437,0,0,1-5.019,30.5,75.712,75.712,0,0,1-13.809,24.1,62.511,62.511,0,0,1-20.708,15.814,59.927,59.927,0,0,1-25.983,5.648,60.72,60.72,0,0,1-26.105-5.648A62.068,62.068,0,0,1,220.555,221.1,73.82,73.82,0,0,1,206.873,197a91.436,91.436,0,0,1-4.9-30.5,91.427,91.427,0,0,1,4.9-30.5,73.792,73.792,0,0,1,13.682-24.1A63.6,63.6,0,0,1,241.39,95.959,59.636,59.636,0,0,1,267.5,90.185a58.86,58.86,0,0,1,25.983,5.774A64.076,64.076,0,0,1,314.186,111.9,75.682,75.682,0,0,1,327.994,136,89.429,89.429,0,0,1,333.014,166.5Zm-40.416,0q0-17.567-7.029-28.492T267.5,127.086q-11.549,0-18.449,10.919t-6.9,28.492q0,17.573,6.9,28.366T267.5,205.656q11.045,0,18.073-10.793T292.6,166.5Z" transform="translate(-57.177 -90.185)"/><path class="b" d="M367.572,268.606l5.5-33.948-68.142-11.039,5.74-35.435,97.562-90.49,27.01,4.375L418.5,205.4l21.806,3.534-5.781,35.682-21.806-3.532-5.5,33.948Zm-17.711-74.327,33.7,5.46,7.107-43.86Z" transform="translate(-19.667 -87.449)"/></g><text class="c" transform="translate(210.382 39.814)"><tspan x="-82.147" y="0">oops!</tspan></text></g><g transform="translate(152.152 255.955)"><g transform="translate(1471.391 935.639)"><ellipse class="b" cx="43.773" cy="29.241" rx="43.773" ry="29.241" transform="translate(-1334.471 -864.692)"/><rect class="b" width="293.328" height="240.405" rx="120.203" transform="translate(-1437.362 -844.833)"/><g transform="translate(-1393.787 -809.304)"><path class="d" d="M576.583,504.711H482.272a56.1,56.1,0,0,0-55.933,55.934h0c0,30.764,25.17,66.542,55.933,66.542h94.312c30.763,0,55.933-35.778,55.933-66.542h0A56.1,56.1,0,0,0,576.583,504.711Z" transform="translate(-426.339 -504.711)"/><path class="e" d="M632.512,571.3v46.625a55.972,55.972,0,0,1-55.935,55.935h-94.3a56.1,56.1,0,0,1-55.935-55.935V571.3a56.113,56.113,0,0,1,53.309-55.873c.867-.038,1.747-.063,2.626-.063h94.3A56.08,56.08,0,0,1,632.512,571.3Z" transform="translate(-426.339 -509.54)"/><path class="f" d="M592.713,671.526a55.3,55.3,0,0,1-16.135,2.387h-94.3a56.1,56.1,0,0,1-55.935-55.936V571.352a56.113,56.113,0,0,1,53.309-55.873Z" transform="translate(-426.339 -509.592)"/></g><rect class="a" width="11.195" height="34.83" transform="translate(-1296.296 -898.126)"/><path class="b" d="M0,0H0A26.778,26.778,0,0,1,26.778,26.778V55.8A26.778,26.778,0,0,1,0,82.575H0a0,0,0,0,1,0,0V0A0,0,0,0,1,0,0Z" transform="translate(-1151.18 -765.488)"/><path class="b" d="M0,0H0A26.778,26.778,0,0,1,26.778,26.778V55.8A26.778,26.778,0,0,1,0,82.575H0a0,0,0,0,1,0,0V0A0,0,0,0,1,0,0Z" transform="translate(-1430.222 -682.913) rotate(180)"/><circle class="b" cx="15.22" cy="15.22" r="15.22" transform="translate(-1309.008 -919.006) rotate(-13.283)"/><g transform="translate(-1258.32 -760.391)"><path class="g" d="M2277.817,1383.412a4.921,4.921,0,0,1-3.479-8.4l21.885-21.885a4.921,4.921,0,0,1,6.959,6.959l-21.886,21.885A4.905,4.905,0,0,1,2277.817,1383.412Z" transform="translate(-2272.898 -1351.686)"/><path class="g" d="M2299.7,1383.412a4.909,4.909,0,0,1-3.479-1.441l-21.885-21.885a4.92,4.92,0,0,1,6.958-6.959l21.886,21.885a4.921,4.921,0,0,1-3.48,8.4Z" transform="translate(-2272.898 -1351.686)"/></g><g transform="translate(-1354.802 -760.391)"><path class="g" d="M2101.336,1383.412a4.921,4.921,0,0,1-3.48-8.4l21.885-21.885a4.921,4.921,0,1,1,6.958,6.959l-21.884,21.885A4.908,4.908,0,0,1,2101.336,1383.412Z" transform="translate(-2096.416 -1351.686)"/><path class="g" d="M2123.221,1383.412a4.906,4.906,0,0,1-3.479-1.441l-21.885-21.885a4.921,4.921,0,0,1,6.959-6.959l21.884,21.885a4.921,4.921,0,0,1-3.479,8.4Z" transform="translate(-2096.416 -1351.686)"/></g><path class="g" d="M2215.015,1472.115a4.1,4.1,0,0,1-3.848-2.684,25.493,25.493,0,0,0-47.838,0,4.1,4.1,0,0,1-7.7-2.834,33.695,33.695,0,0,1,63.23,0,4.1,4.1,0,0,1-3.848,5.518Z" transform="translate(-3477.945 -2154.176)"/></g></g><g transform="translate(77.113 94.211)"><g transform="translate(0 0)"><path class="h" d="M272.11,366.934l-.975-.221a37.942,37.942,0,0,1,6.732-14.242c4.071-5.136,8.848-7.429,13.812-6.631a11.477,11.477,0,0,1,2.756.8,35.685,35.685,0,0,1,2.383-8.01c2.056-4.716,6.112-10.762,13.766-12.779a24.167,24.167,0,0,1,13.03.084,28.6,28.6,0,0,1,9.746,5.143,37.314,37.314,0,0,1,8.223,9.023l-.857.516a37.03,37.03,0,0,0-8.011-8.773c-6.816-5.365-14.176-7.056-21.877-5.026C301.3,329.329,296.8,338.6,295.362,347.1a10.824,10.824,0,0,1,1.106.7,11.675,11.675,0,0,1,3.158,3.477,13.177,13.177,0,0,1,1.853,8.1c-.348,2.814-1.828,4.453-3.863,4.276-1.906-.166-3.281-3.025-3.677-7.648a36.134,36.134,0,0,1,.325-8.338,10.265,10.265,0,0,0-2.746-.84c-5.794-.931-10.2,2.893-12.87,6.265A36.876,36.876,0,0,0,272.11,366.934ZM295.2,348.168a35.17,35.17,0,0,0-.26,7.752,16.228,16.228,0,0,0,1.079,4.936c.486,1.109,1.085,1.748,1.689,1.8,2.169.189,2.679-2.557,2.784-3.4A11.893,11.893,0,0,0,295.2,348.168Z" transform="translate(5.068 8.608)"/><path class="h" d="M210.161,400.217c-.068,0-.136,0-.2-.006A3.942,3.942,0,0,1,206.387,398c-.685-1.42-.695-3.423-.028-5.794a24,24,0,0,1,3.566-7.161c.178-.251.369-.513.573-.783a17.847,17.847,0,0,0-8.732-8.176c-8.354-3.433-18.179,1.737-22.114,8.721l-.871-.491a21.121,21.121,0,0,1,9.868-8.662,17.224,17.224,0,0,1,13.5-.493,17.4,17.4,0,0,1,6,4.15,20.8,20.8,0,0,1,3.022,4.1,29.181,29.181,0,0,1,8.243-7.024,23.819,23.819,0,0,1,6.372-2.492,22.008,22.008,0,0,1,18.441,4.152,26.037,26.037,0,0,1,6.534,8.007,35.669,35.669,0,0,1,3.8,10.98l-.99.138a35.346,35.346,0,0,0-3.7-10.666c-3.908-7.171-9.62-11.218-16.976-12.031-9.082-1-16.717,4.246-21.206,9.9q.174.345.338.7c1.819,3.916,2.509,8.288,1.8,11.41C213.283,398.867,211.954,400.217,210.161,400.217Zm.845-14.957q-.134.183-.264.367a23,23,0,0,0-3.42,6.854,7.562,7.562,0,0,0-.034,5.088,2.959,2.959,0,0,0,2.724,1.644c1.862.1,2.576-1.806,2.836-2.953.661-2.916,0-7.042-1.733-10.768C211.079,385.414,211.043,385.337,211.006,385.26Z" transform="translate(-28.599 26.226)"/><path class="h" d="M149.8,154.007l-1-.018a36.888,36.888,0,0,0-3.048-15c-1.791-3.913-5.154-8.677-11-9.155a10.267,10.267,0,0,0-2.867.16,36.131,36.131,0,0,1-1.674,8.175c-1.488,4.394-3.505,6.842-5.4,6.548-2.018-.314-3.065-2.258-2.731-5.074a13.175,13.175,0,0,1,3.733-7.425,11.676,11.676,0,0,1,3.9-2.623,10.824,10.824,0,0,1,1.242-.418c.632-8.592-1.53-18.672-10.189-23.388-6.994-3.809-14.545-3.924-22.443-.341a37.028,37.028,0,0,0-9.873,6.608l-.708-.706a37.313,37.313,0,0,1,10.139-6.8,28.6,28.6,0,0,1,10.692-2.668,24.165,24.165,0,0,1,12.673,3.029c6.951,3.786,9.448,10.625,10.318,15.7a35.689,35.689,0,0,1,.4,8.348,11.479,11.479,0,0,1,2.867-.118c5.012.409,9.1,3.776,11.831,9.736A37.955,37.955,0,0,1,149.8,154.007Zm-18.941-23.753a11.891,11.891,0,0,0-7.785,9.5c-.1.846-.26,3.633,1.892,3.968.6.093,1.334-.385,2.07-1.345a16.224,16.224,0,0,0,2.226-4.535A35.174,35.174,0,0,0,130.857,130.254Z" transform="translate(-61.8 -72.69)"/><path class="h" d="M314,242.579a37.313,37.313,0,0,1-4.246-11.446,28.6,28.6,0,0,1-.1-11.02,24.168,24.168,0,0,1,5.9-11.617c5.3-5.875,12.537-6.707,17.671-6.371a35.692,35.692,0,0,1,8.212,1.556,11.477,11.477,0,0,1,.555-2.815c1.568-4.778,5.8-7.97,12.228-9.232a37.956,37.956,0,0,1,15.743.55l-.251.968a36.888,36.888,0,0,0-15.3-.537c-4.223.829-9.641,2.987-11.47,8.562A10.26,10.26,0,0,0,342.43,204a36.131,36.131,0,0,1,7.558,3.536c3.926,2.473,5.836,5.006,5.108,6.776-.776,1.889-2.91,2.453-5.57,1.472a13.176,13.176,0,0,1-6.35-5.363,11.674,11.674,0,0,1-1.642-4.4,10.817,10.817,0,0,1-.117-1.305c-8.207-2.619-18.513-2.869-25.12,4.45-5.343,5.92-7.214,13.247-5.562,21.777a36.944,36.944,0,0,0,4.116,11.111Zm28.446-37.518a11.893,11.893,0,0,0,7.425,9.788c.8.295,3.472,1.1,4.3-.913.23-.561-.063-1.387-.825-2.327a16.222,16.222,0,0,0-3.891-3.223A35.191,35.191,0,0,0,342.448,205.061Z" transform="translate(18.93 -40.194)"/><path class="h" d="M291.567,143.7a23.413,23.413,0,0,1-.655-7.714,26.662,26.662,0,0,1,1.851-7.906,20.532,20.532,0,0,1,11.094-11.668,20.75,20.75,0,0,1,8.575-1.462,24.856,24.856,0,0,1,6.134,1.016,36.612,36.612,0,0,1-.122-5.212,33.711,33.711,0,0,1,1.284-7.813,28.434,28.434,0,0,1,3.36-7.444,26.264,26.264,0,0,1,19.2-11.84,31.087,31.087,0,0,1,12.262,1.384,44.074,44.074,0,0,1,8.934,3.941,34.226,34.226,0,0,1,3.481,2.268l-.612.791a42.429,42.429,0,0,0-12.126-6.053c-9.386-2.882-17.7-1.563-24.71,3.923-8.673,6.786-10.815,17.747-9.91,26.384q.467.158.933.335c4.818,1.825,9.051,4.977,11.047,8.225,1.564,2.546,1.5,4.844-.171,6.3a4.628,4.628,0,0,1-4.807,1.079c-1.752-.634-3.419-2.326-4.821-4.893a28.642,28.642,0,0,1-2.93-9.087q-.1-.6-.173-1.212a21.492,21.492,0,0,0-14.453.291c-10.079,4.073-14.186,16.785-11.7,26.1Zm28.173-26.3q.049.354.1.7a27.639,27.639,0,0,0,2.82,8.765c1.265,2.316,2.786,3.89,4.284,4.432a3.637,3.637,0,0,0,3.809-.892c1.736-1.516.731-3.8-.023-5.028-1.886-3.069-5.928-6.063-10.549-7.814Q319.963,117.484,319.74,117.4Z" transform="translate(12.252 -79.37)"/><g transform="translate(129.148 401.754)"><path class="h" d="M179.606,383.711a5.8,5.8,0,1,0,3.786,7.276A5.8,5.8,0,0,0,179.606,383.711Zm3.113,7.063a5.093,5.093,0,1,1-3.324-6.388A5.092,5.092,0,0,1,182.72,390.774Zm-3.113-7.063a5.8,5.8,0,1,0,3.786,7.276A5.8,5.8,0,0,0,179.606,383.711Zm3.113,7.063a5.093,5.093,0,1,1-3.324-6.388A5.092,5.092,0,0,1,182.72,390.774Zm-3.113-7.063a5.8,5.8,0,1,0,3.786,7.276A5.8,5.8,0,0,0,179.606,383.711Zm3.113,7.063a5.093,5.093,0,1,1-3.324-6.388A5.092,5.092,0,0,1,182.72,390.774Zm-1.18-13.193a12.229,12.229,0,1,0,7.983,15.337A12.235,12.235,0,0,0,181.539,377.581Zm2.715,13.676a6.7,6.7,0,1,1-4.375-8.406A6.709,6.709,0,0,1,184.255,391.257Zm-.862-.27a5.8,5.8,0,1,0-7.272,3.79A5.8,5.8,0,0,0,183.392,390.987Zm-.673-.213a5.093,5.093,0,1,1-3.324-6.388A5.092,5.092,0,0,1,182.72,390.774Zm-3.113-7.063a5.8,5.8,0,1,0,3.786,7.276A5.8,5.8,0,0,0,179.606,383.711Zm3.113,7.063a5.093,5.093,0,1,1-3.324-6.388A5.092,5.092,0,0,1,182.72,390.774Zm-3.113-7.063a5.8,5.8,0,1,0,3.786,7.276A5.8,5.8,0,0,0,179.606,383.711Zm3.113,7.063a5.093,5.093,0,1,1-3.324-6.388A5.092,5.092,0,0,1,182.72,390.774Z" transform="translate(-162.697 -374.375)"/><path class="h" d="M175.056,395.066l-4.484-1.413-.752,3.252,3.988,1.257Z" transform="translate(-161.171 -368.313)"/><path class="h" d="M169.086,392.723l-2.172-4.17-2.832,1.768,1.932,3.709Z" transform="translate(-163.261 -370.17)"/><path class="h" d="M166.577,386.654l1.413-4.484-3.252-.752-1.257,3.989Z" transform="translate(-163.481 -372.77)"/><path class="h" d="M169.178,380.685l4.17-2.172-1.768-2.832-3.709,1.932Z" transform="translate(-161.881 -374.86)"/><path class="h" d="M175.182,378.176l4.484,1.413.752-3.252-3.989-1.257Z" transform="translate(-159.217 -375.08)"/><path class="h" d="M181.089,380.776l2.172,4.17,2.832-1.768-1.932-3.709Z" transform="translate(-157.065 -373.48)"/><path class="h" d="M183.467,386.781l-1.413,4.484,3.252.752,1.257-3.989Z" transform="translate(-156.714 -370.816)"/><path class="h" d="M181.125,392.688l-4.17,2.172,1.768,2.832,3.709-1.932Z" transform="translate(-158.572 -368.664)"/></g><g transform="translate(333.898 337.944)"><path class="h" d="M350.673,361.314a18.69,18.69,0,1,0-26.146,3.873A18.689,18.689,0,0,0,350.673,361.314Zm-8-5.936a8.728,8.728,0,1,1-1.808-12.207A8.728,8.728,0,0,1,342.674,355.378Z" transform="translate(-312.306 -327.153)"/><path class="h" d="M327.229,358.443l-5.771-4.283-2.713,4.322,5.133,3.809Z" transform="translate(-311.661 -318.892)"/><path class="h" d="M319.579,351.8l-1.052-7.109-4.974,1.138.936,6.323Z" transform="translate(-313.552 -322.343)"/><path class="h" d="M319.285,341.987l4.283-5.771-4.322-2.713-3.809,5.133Z" transform="translate(-312.866 -326.419)"/><path class="h" d="M325.752,334.337l7.109-1.052-1.138-4.974-6.323.936Z" transform="translate(-309.236 -328.31)"/><path class="h" d="M335.836,334.043l5.771,4.283L344.32,334l-5.133-3.81Z" transform="translate(-305.434 -327.624)"/><path class="h" d="M342.829,340.51l1.052,7.109,4.974-1.138-.936-6.323Z" transform="translate(-302.886 -323.994)"/><path class="h" d="M343.685,350.594l-4.283,5.771,4.322,2.713,3.809-5.133Z" transform="translate(-304.134 -320.192)"/><path class="h" d="M337.04,357.587l-7.109,1.052,1.138,4.974,6.323-.936Z" transform="translate(-307.585 -317.644)"/><path class="h" d="M325.767,347.679l3.969,5.007,6.322-.939,2.347-5.939-3.966-5-6.322.933Zm7.526-2.562a2.026,2.026,0,1,1-2.834.42A2.023,2.023,0,0,1,333.293,345.117Z" transform="translate(-309.102 -323.759)"/></g><g transform="translate(371.48)"><path class="h" d="M355.209,88.166a5.076,5.076,0,1,0,3.314,6.367A5.076,5.076,0,0,0,355.209,88.166Zm2.725,6.18a4.457,4.457,0,1,1-2.909-5.59A4.456,4.456,0,0,1,357.933,94.347Zm-2.725-6.18a5.076,5.076,0,1,0,3.314,6.367A5.076,5.076,0,0,0,355.209,88.166Zm2.725,6.18a4.457,4.457,0,1,1-2.909-5.59A4.456,4.456,0,0,1,357.933,94.347Zm-2.725-6.18a5.076,5.076,0,1,0,3.314,6.367A5.076,5.076,0,0,0,355.209,88.166Zm2.725,6.18a4.457,4.457,0,1,1-2.909-5.59A4.456,4.456,0,0,1,357.933,94.347ZM356.9,82.8a10.7,10.7,0,1,0,6.985,13.421A10.706,10.706,0,0,0,356.9,82.8Zm2.377,11.968a5.865,5.865,0,1,1-3.83-7.355A5.873,5.873,0,0,1,359.277,94.77Zm-.754-.236a5.076,5.076,0,1,0-6.363,3.317A5.077,5.077,0,0,0,358.523,94.534Zm-.589-.187a4.457,4.457,0,1,1-2.909-5.59A4.456,4.456,0,0,1,357.933,94.347Zm-2.725-6.18a5.076,5.076,0,1,0,3.314,6.367A5.076,5.076,0,0,0,355.209,88.166Zm2.725,6.18a4.457,4.457,0,1,1-2.909-5.59A4.456,4.456,0,0,1,357.933,94.347Zm-2.725-6.18a5.076,5.076,0,1,0,3.314,6.367A5.076,5.076,0,0,0,355.209,88.166Zm2.725,6.18a4.457,4.457,0,1,1-2.909-5.59A4.456,4.456,0,0,1,357.933,94.347Z" transform="translate(-340.413 -79.997)"/><path class="h" d="M351.227,98.1,347.3,96.866l-.658,2.846,3.49,1.1Z" transform="translate(-339.078 -74.692)"/><path class="h" d="M346,96.052,344.1,92.4l-2.478,1.547,1.69,3.245Z" transform="translate(-340.907 -76.318)"/><path class="h" d="M343.808,90.742l1.237-3.924L342.2,86.16l-1.1,3.49Z" transform="translate(-341.099 -78.593)"/><path class="h" d="M346.084,85.518l3.649-1.9-1.547-2.478-3.245,1.69Z" transform="translate(-339.699 -80.421)"/><path class="h" d="M351.338,83.323l3.924,1.236.658-2.846-3.49-1.1Z" transform="translate(-337.368 -80.613)"/><path class="h" d="M356.507,85.6l1.9,3.649,2.478-1.547-1.69-3.245Z" transform="translate(-335.485 -79.214)"/><path class="h" d="M358.587,90.853l-1.237,3.924,2.846.658,1.1-3.49Z" transform="translate(-335.177 -76.883)"/><path class="h" d="M356.538,96.022l-3.649,1.9,1.547,2.478,3.245-1.69Z" transform="translate(-336.803 -74.999)"/></g><g transform="translate(319.341 194.918)"><path class="h" d="M316.994,231.031a5.077,5.077,0,1,0,3.313,6.367A5.078,5.078,0,0,0,316.994,231.031Zm2.723,6.18a4.457,4.457,0,1,1-2.909-5.59A4.456,4.456,0,0,1,319.717,237.212Zm-2.723-6.18a5.077,5.077,0,1,0,3.313,6.367A5.078,5.078,0,0,0,316.994,231.031Zm2.723,6.18a4.457,4.457,0,1,1-2.909-5.59A4.456,4.456,0,0,1,319.717,237.212Zm-2.723-6.18a5.077,5.077,0,1,0,3.313,6.367A5.078,5.078,0,0,0,316.994,231.031Zm2.723,6.18a4.457,4.457,0,1,1-2.909-5.59A4.456,4.456,0,0,1,319.717,237.212Zm-1.031-11.544a10.7,10.7,0,1,0,6.984,13.42A10.7,10.7,0,0,0,318.686,225.668Zm2.375,11.967a5.865,5.865,0,1,1-3.83-7.355A5.871,5.871,0,0,1,321.061,237.634Zm-.755-.236a5.076,5.076,0,1,0-6.363,3.317A5.076,5.076,0,0,0,320.307,237.4Zm-.589-.187a4.457,4.457,0,1,1-2.909-5.59A4.456,4.456,0,0,1,319.717,237.212Zm-2.723-6.18a5.077,5.077,0,1,0,3.313,6.367A5.078,5.078,0,0,0,316.994,231.031Zm2.723,6.18a4.457,4.457,0,1,1-2.909-5.59A4.456,4.456,0,0,1,319.717,237.212Zm-2.723-6.18a5.077,5.077,0,1,0,3.313,6.367A5.078,5.078,0,0,0,316.994,231.031Zm2.723,6.18a4.457,4.457,0,1,1-2.909-5.59A4.456,4.456,0,0,1,319.717,237.212Z" transform="translate(-302.197 -222.862)"/><path class="h" d="M313.011,240.967l-3.924-1.237-.658,2.846,3.49,1.1Z" transform="translate(-300.862 -217.557)"/><path class="h" d="M307.788,238.918l-1.9-3.649-2.478,1.547,1.69,3.245Z" transform="translate(-302.691 -219.183)"/><path class="h" d="M305.592,233.607l1.236-3.924-2.846-.658-1.1,3.49Z" transform="translate(-302.883 -221.458)"/><path class="h" d="M307.868,228.384l3.649-1.9-1.547-2.478-3.245,1.69Z" transform="translate(-301.483 -223.287)"/><path class="h" d="M313.122,226.188l3.924,1.236.658-2.846-3.49-1.1Z" transform="translate(-299.152 -223.479)"/><path class="h" d="M318.291,228.464l1.9,3.649,2.478-1.547-1.69-3.245Z" transform="translate(-297.269 -222.079)"/><path class="h" d="M320.371,233.718l-1.236,3.924,2.846.658,1.1-3.49Z" transform="translate(-296.961 -219.748)"/><path class="h" d="M318.322,238.887l-3.649,1.9,1.547,2.478,3.246-1.69Z" transform="translate(-298.587 -217.865)"/></g><g transform="translate(0 26.119)"><path class="h" d="M103.5,122.308a16.093,16.093,0,1,0-19.443,11.829A16.092,16.092,0,0,0,103.5,122.308Zm-8.333-2.03A7.516,7.516,0,1,1,89.64,111.2,7.513,7.513,0,0,1,95.162,120.278Z" transform="translate(-67.75 -98.793)"/><path class="h" d="M84.882,126.114l-6.013-1.465-.7,4.337,5.348,1.3Z" transform="translate(-65.417 -90.688)"/><path class="h" d="M76.873,123.607l-3.216-5.287-3.565,2.569,2.86,4.7Z" transform="translate(-68.358 -92.995)"/><path class="h" d="M73,115.818l1.465-6.013-4.337-.7-1.3,5.348Z" transform="translate(-68.821 -96.353)"/><path class="h" d="M75.94,107.809l5.287-3.216-2.569-3.565-4.7,2.86Z" transform="translate(-66.951 -99.295)"/><path class="h" d="M83.58,103.933l6.013,1.465.7-4.337-5.348-1.3Z" transform="translate(-63.444 -99.758)"/><path class="h" d="M91.606,106.876l3.216,5.287,3.565-2.569-2.86-4.7Z" transform="translate(-60.52 -97.887)"/><path class="h" d="M95.178,114.517l-1.465,6.013,4.337.7,1.3-5.348Z" transform="translate(-59.752 -94.38)"/><path class="h" d="M92.67,122.543l-5.287,3.216,2.569,3.565,4.7-2.86Z" transform="translate(-62.059 -91.456)"/><path class="h" d="M79.923,118.6l4.826,2.643,4.7-2.862-.127-5.5L84.5,110.24,79.8,113.1Zm5.112-4.553a1.744,1.744,0,1,1-2.108,1.281A1.74,1.74,0,0,1,85.035,114.045Z" transform="translate(-64.823 -95.939)"/></g></g></g></g><path class="b" d="M20,0H142a20,20,0,0,1,20,20V37a20,20,0,0,1-20,20H0a0,0,0,0,1,0,0V20A20,20,0,0,1,20,0Z" transform="translate(-1980 -423)"/><text class="i" transform="translate(-1899 -381)"><tspan x="-46.707" y="0">error</tspan></text></g></svg>