<svg xmlns="http://www.w3.org/2000/svg" xmlns:xlink="http://www.w3.org/1999/xlink" width="132.952" height="129.829" viewBox="0 0 132.952 129.829"><defs><style>.a{fill:#efecfb;}.b{fill:#b9a8ff;}.c{fill:url(#a);}.d{fill:url(#b);}.e{fill:#3721a5;}.f{fill:#04e9d7;}.g{fill:#b1eef0;}</style><linearGradient id="a" x1="0.5" x2="0.5" y2="1" gradientUnits="objectBoundingBox"><stop offset="0" stop-color="#5a41e6"/><stop offset="1" stop-color="#140064"/></linearGradient><linearGradient id="b" x1="0.5" x2="0.5" y2="1" gradientUnits="objectBoundingBox"><stop offset="0" stop-color="#705ce4"/><stop offset="1" stop-color="#140064"/></linearGradient></defs><g transform="translate(1807 927)"><ellipse class="a" cx="17.498" cy="11.689" rx="17.498" ry="11.689" transform="translate(-1758.021 -901.208)"/><rect class="a" width="117.254" height="96.099" rx="48.049" transform="translate(-1799.15 -893.269)"/><g transform="translate(-1781.731 -879.4)"><path class="b" d="M486.4,504.711H448.7a22.425,22.425,0,0,0-22.359,22.359h0c0,12.3,10.061,26.6,22.359,26.6h37.7c12.3,0,22.359-14.3,22.359-26.6h0A22.425,22.425,0,0,0,486.4,504.711Z" transform="translate(-426.339 -504.711)"/><path class="c" d="M508.754,537.724v18.638a22.374,22.374,0,0,1-22.359,22.359H448.7a22.425,22.425,0,0,1-22.359-22.359V537.724a22.43,22.43,0,0,1,21.31-22.334c.347-.015.7-.025,1.05-.025h37.7a22.417,22.417,0,0,1,22.359,22.36Z" transform="translate(-426.339 -513.036)"/><path class="d" d="M492.845,577.857a22.1,22.1,0,0,1-6.45.954H448.7a22.425,22.425,0,0,1-22.359-22.36V537.814a22.431,22.431,0,0,1,21.31-22.335Z" transform="translate(-426.339 -513.126)"/></g><rect class="e" width="4.475" height="13.923" transform="translate(-1742.761 -914.573)"/><path class="a" d="M0,0H0A10.7,10.7,0,0,1,10.7,10.7V22.3A10.7,10.7,0,0,1,0,33.008H0a0,0,0,0,1,0,0V0A0,0,0,0,1,0,0Z" transform="translate(-1684.752 -861.552)"/><path class="a" d="M0,0H0A10.7,10.7,0,0,1,10.7,10.7V22.3A10.7,10.7,0,0,1,0,33.008H0a0,0,0,0,1,0,0V0A0,0,0,0,1,0,0Z" transform="translate(-1796.296 -828.544) rotate(-180)"/><circle class="a" cx="6.084" cy="6.084" r="6.084" transform="translate(-1749.127 -918.396) rotate(-45)"/><g transform="translate(-1728.136 -860.071)"><circle class="f" cx="5.733" cy="5.733" r="5.733" transform="matrix(0.973, -0.23, 0.23, 0.973, 0, 2.634)"/><circle class="g" cx="1.878" cy="1.878" r="1.878" transform="translate(3.426 3.526)"/></g><g transform="translate(-1767.914 -861.282)"><circle class="f" cx="5.733" cy="5.733" r="5.733" transform="translate(0 8.108) rotate(-45)"/><circle class="g" cx="1.878" cy="1.878" r="1.878" transform="translate(4.637 4.737)"/></g><path class="f" d="M580.449,1455.572a1.64,1.64,0,0,1-1.538-1.073,10.191,10.191,0,0,0-19.123,0,1.639,1.639,0,0,1-3.076-1.133,13.469,13.469,0,0,1,25.275,0,1.64,1.64,0,0,1-1.538,2.206Z" transform="translate(-2309.873 -2283.776)"/></g></svg>