<svg xmlns="http://www.w3.org/2000/svg" xmlns:xlink="http://www.w3.org/1999/xlink" width="132.952" height="128.545" viewBox="0 0 132.952 128.545"><defs><style>.a{fill:#efecfb;}.b{fill:#b9a8ff;}.c{fill:url(#a);}.d{fill:url(#b);}.e{fill:#3721a5;}.f{fill:#04e9d7;}</style><linearGradient id="a" x1="0.5" x2="0.5" y2="1" gradientUnits="objectBoundingBox"><stop offset="0" stop-color="#5a41e6"/><stop offset="1" stop-color="#140064"/></linearGradient><linearGradient id="b" x1="0.5" x2="0.5" y2="1" gradientUnits="objectBoundingBox"><stop offset="0" stop-color="#705ce4"/><stop offset="1" stop-color="#140064"/></linearGradient></defs><g transform="translate(1457 926)"><ellipse class="a" cx="17.498" cy="11.689" rx="17.498" ry="11.689" transform="translate(-1408.021 -901.493)"/><rect class="a" width="117.254" height="96.099" rx="48.049" transform="translate(-1449.15 -893.555)"/><g transform="translate(-1431.731 -879.352)"><path class="b" d="M486.4,504.711H448.7a22.425,22.425,0,0,0-22.359,22.359h0c0,12.3,10.061,26.6,22.359,26.6h37.7c12.3,0,22.359-14.3,22.359-26.6h0A22.425,22.425,0,0,0,486.4,504.711Z" transform="translate(-426.339 -504.711)"/><path class="c" d="M508.754,537.724v18.638a22.374,22.374,0,0,1-22.359,22.359H448.7a22.425,22.425,0,0,1-22.359-22.359V537.724a22.43,22.43,0,0,1,21.31-22.334c.347-.015.7-.025,1.05-.025h37.7a22.417,22.417,0,0,1,22.359,22.36Z" transform="translate(-426.339 -513.036)"/><path class="d" d="M492.845,577.857a22.1,22.1,0,0,1-6.45.954H448.7a22.425,22.425,0,0,1-22.359-22.36V537.814a22.431,22.431,0,0,1,21.31-22.335Z" transform="translate(-426.339 -513.126)"/></g><rect class="e" width="4.475" height="13.923" transform="translate(-1392.761 -914.858)"/><path class="a" d="M0,0H0A10.7,10.7,0,0,1,10.7,10.7V22.3A10.7,10.7,0,0,1,0,33.008H0a0,0,0,0,1,0,0V0A0,0,0,0,1,0,0Z" transform="translate(-1334.752 -861.837)"/><path class="a" d="M0,0H0A10.7,10.7,0,0,1,10.7,10.7V22.3A10.7,10.7,0,0,1,0,33.008H0a0,0,0,0,1,0,0V0A0,0,0,0,1,0,0Z" transform="translate(-1446.296 -828.829) rotate(180)"/><circle class="a" cx="6.084" cy="6.084" r="6.084" transform="translate(-1397.842 -923.204) rotate(-13.283)"/><g transform="translate(-1377.58 -859.8)"><path class="f" d="M2274.865,1364.368a1.967,1.967,0,0,1-1.391-3.358l8.748-8.748a1.967,1.967,0,0,1,2.782,2.782l-8.749,8.748A1.961,1.961,0,0,1,2274.865,1364.368Z" transform="translate(-2272.898 -1351.686)"/><path class="f" d="M2283.613,1364.368a1.962,1.962,0,0,1-1.391-.576l-8.748-8.748a1.967,1.967,0,0,1,2.781-2.782l8.749,8.748a1.967,1.967,0,0,1-1.391,3.358Z" transform="translate(-2272.898 -1351.686)"/></g><g transform="translate(-1416.148 -859.8)"><path class="f" d="M2098.382,1364.368a1.967,1.967,0,0,1-1.391-3.358l8.748-8.748a1.967,1.967,0,0,1,2.781,2.782l-8.748,8.748A1.962,1.962,0,0,1,2098.382,1364.368Z" transform="translate(-2096.416 -1351.686)"/><path class="f" d="M2107.131,1364.368a1.961,1.961,0,0,1-1.391-.576l-8.748-8.748a1.967,1.967,0,0,1,2.782-2.782l8.748,8.748a1.967,1.967,0,0,1-1.391,3.358Z" transform="translate(-2096.416 -1351.686)"/></g><path class="f" d="M2179.218,1455.572a1.64,1.64,0,0,1-1.538-1.073,10.191,10.191,0,0,0-19.123,0,1.639,1.639,0,0,1-3.076-1.133,13.469,13.469,0,0,1,25.275,0,1.64,1.64,0,0,1-1.538,2.206Z" transform="translate(-3558.641 -2284.061)"/></g></svg>