<svg xmlns="http://www.w3.org/2000/svg" xmlns:xlink="http://www.w3.org/1999/xlink" width="132.952" height="128.497" viewBox="0 0 132.952 128.497"><defs><style>.a{fill:#efecfb;}.b{fill:#b9a8ff;}.c{fill:url(#a);}.d{fill:url(#b);}.e{fill:#3721a5;}.f{fill:#04e9d7;}</style><linearGradient id="a" x1="0.5" x2="0.5" y2="1" gradientUnits="objectBoundingBox"><stop offset="0" stop-color="#5a41e6"/><stop offset="1" stop-color="#140064"/></linearGradient><linearGradient id="b" x1="0.5" x2="0.5" y2="1" gradientUnits="objectBoundingBox"><stop offset="0" stop-color="#705ce4"/><stop offset="1" stop-color="#140064"/></linearGradient></defs><g transform="translate(1632 926)"><ellipse class="a" cx="17.498" cy="11.689" rx="17.498" ry="11.689" transform="translate(-1583.021 -901.54)"/><rect class="a" width="117.254" height="96.099" rx="48.049" transform="translate(-1624.15 -893.602)"/><g transform="translate(-1606.731 -879.4)"><path class="b" d="M486.4,504.711H448.7a22.425,22.425,0,0,0-22.359,22.359h0c0,12.3,10.061,26.6,22.359,26.6h37.7c12.3,0,22.359-14.3,22.359-26.6h0A22.425,22.425,0,0,0,486.4,504.711Z" transform="translate(-426.339 -504.711)"/><path class="c" d="M508.754,537.724v18.638a22.374,22.374,0,0,1-22.359,22.359H448.7a22.425,22.425,0,0,1-22.359-22.359V537.724a22.43,22.43,0,0,1,21.31-22.334c.347-.015.7-.025,1.05-.025h37.7a22.417,22.417,0,0,1,22.359,22.36Z" transform="translate(-426.339 -513.036)"/><path class="d" d="M492.845,577.857a22.1,22.1,0,0,1-6.45.954H448.7a22.425,22.425,0,0,1-22.359-22.36V537.814a22.431,22.431,0,0,1,21.31-22.335Z" transform="translate(-426.339 -513.126)"/></g><rect class="e" width="4.475" height="13.923" transform="translate(-1567.76 -914.905)"/><path class="a" d="M1669.495,1342.364h0v33.008h0a10.7,10.7,0,0,0,10.7-10.7v-11.6A10.7,10.7,0,0,0,1669.495,1342.364Z" transform="translate(-3179.247 -2204.249)"/><path class="a" d="M1120.8,1342.364h0v33.008h0a10.7,10.7,0,0,1-10.7-10.7v-11.6A10.7,10.7,0,0,1,1120.8,1342.364Z" transform="translate(-2742.094 -2204.249)"/><circle class="a" cx="6.084" cy="6.084" r="6.084" transform="translate(-1572.795 -923.327) rotate(-12.689)"/><g transform="translate(-1592.2 -865.161)"><path class="f" d="M1299.9,1365.456v-9.025h-1.82a5.87,5.87,0,0,1-5.864-5.864v-17.335a5.87,5.87,0,0,1,5.864-5.864h32.527a5.87,5.87,0,0,1,5.864,5.864v17.335a5.87,5.87,0,0,1-5.864,5.864H1309.9Zm-1.82-35.33a3.11,3.11,0,0,0-3.107,3.107v17.335a3.11,3.11,0,0,0,3.107,3.107h4.577v5.58l6.183-5.58h21.766a3.11,3.11,0,0,0,3.107-3.107v-17.335a3.11,3.11,0,0,0-3.107-3.107Z" transform="translate(-1292.215 -1327.369)"/><g transform="translate(6.894 9.966)"><g transform="translate(22.039 0.704)"><circle class="f" cx="3.228" cy="3.228" r="3.228" transform="translate(0 1.425) rotate(-12.748)"/></g><g transform="translate(11.272 0.605)"><circle class="f" cx="3.228" cy="3.228" r="3.228" transform="matrix(0.965, -0.262, 0.262, 0.965, 0, 1.689)"/></g><circle class="f" cx="3.228" cy="3.228" r="3.228" transform="translate(0 4.565) rotate(-45)"/></g><g transform="translate(18.289 10.44)"><path class="f" d="M1405.039,1405.548l-8.151-7.356h-15.906c-4.456-.17-4.531-3.167-4.567-4.608a4.8,4.8,0,0,0-.064-.852l-.448-1.725H1396a3.11,3.11,0,0,0,3.107-3.107V1375.14h7.017a4.844,4.844,0,0,1,4.839,4.839v13.374a4.844,4.844,0,0,1-4.839,4.839h-1.089Zm-23.978-10.113h16.887l4.334,3.911v-3.911h3.846a2.084,2.084,0,0,0,2.082-2.082v-13.374a2.084,2.084,0,0,0-2.082-2.082h-4.26v10a5.87,5.87,0,0,1-5.864,5.864h-16.827C1379.214,1394.98,1379.33,1395.365,1381.061,1395.435Z" transform="translate(-1375.903 -1375.14)"/></g></g></g></svg>