<svg xmlns="http://www.w3.org/2000/svg" xmlns:xlink="http://www.w3.org/1999/xlink" width="132.952" height="129.766" viewBox="0 0 132.952 129.766"><defs><style>.a{fill:#3721a5;}.b{fill:#efecfb;}.c{fill:#b9a8ff;}.d{fill:url(#a);}.e{fill:url(#b);}.f{fill:#04e9d7;}.g{fill:#b1eef0;}</style><linearGradient id="a" x1="0.5" x2="0.5" y2="1" gradientUnits="objectBoundingBox"><stop offset="0" stop-color="#5a41e6"/><stop offset="1" stop-color="#140064"/></linearGradient><linearGradient id="b" x1="0.5" x2="0.5" y2="1" gradientUnits="objectBoundingBox"><stop offset="0" stop-color="#705ce4"/><stop offset="1" stop-color="#140064"/></linearGradient></defs><rect class="a" width="4.475" height="13.923" transform="translate(64.239 12.363)"/><ellipse class="b" cx="17.498" cy="11.689" rx="17.498" ry="11.689" transform="translate(48.979 25.728)"/><rect class="b" width="117.254" height="96.099" rx="48.049" transform="translate(7.85 33.667)"/><path class="b" d="M0,0H0A10.7,10.7,0,0,1,10.7,10.7V22.3A10.7,10.7,0,0,1,0,33.008H0a0,0,0,0,1,0,0V0A0,0,0,0,1,0,0Z" transform="translate(122.248 65.384)"/><path class="b" d="M0,0H0A10.7,10.7,0,0,1,10.7,10.7V22.3A10.7,10.7,0,0,1,0,33.008H0a0,0,0,0,1,0,0V0A0,0,0,0,1,0,0Z" transform="translate(10.704 98.392) rotate(-180)"/><circle class="b" cx="6.084" cy="6.084" r="6.084" transform="matrix(0.616, -0.788, 0.788, 0.616, 57.937, 9.586)"/><g transform="translate(25.269 47.869)"><path class="c" d="M486.4,504.711H448.7a22.425,22.425,0,0,0-22.359,22.359h0c0,12.3,10.061,26.6,22.359,26.6h37.7c12.3,0,22.359-14.3,22.359-26.6h0A22.425,22.425,0,0,0,486.4,504.711Z" transform="translate(-426.339 -504.711)"/><path class="d" d="M508.754,537.724v18.638a22.374,22.374,0,0,1-22.359,22.359H448.7a22.425,22.425,0,0,1-22.359-22.359V537.724a22.43,22.43,0,0,1,21.31-22.334c.347-.015.7-.025,1.05-.025h37.7a22.417,22.417,0,0,1,22.359,22.36Z" transform="translate(-426.339 -513.036)"/><path class="e" d="M492.845,577.857a22.1,22.1,0,0,1-6.45.954H448.7a22.425,22.425,0,0,1-22.359-22.36V537.814a22.431,22.431,0,0,1,21.31-22.335Z" transform="translate(-426.339 -513.126)"/></g><g transform="translate(78.815 66.816)"><circle class="f" cx="5.733" cy="5.733" r="5.733" transform="translate(0 2.764) rotate(-13.949)"/><circle class="g" cx="1.878" cy="1.878" r="1.878" transform="translate(3.475 3.575)"/></g><g transform="translate(39.19 65.759)"><ellipse class="f" cx="5.733" cy="5.733" rx="5.733" ry="5.733" transform="matrix(0.811, -0.585, 0.585, 0.811, 0, 6.704)"/><circle class="g" cx="1.878" cy="1.878" r="1.878" transform="translate(4.532 4.632)"/></g><path class="f" d="M562.191,696.548A14.9,14.9,0,0,0,576.907,684a2.037,2.037,0,0,0-2.01-2.357H549.485a2.037,2.037,0,0,0-2.01,2.357A14.905,14.905,0,0,0,562.191,696.548Z" transform="translate(-495.714 -595.112)"/></svg>