<svg xmlns="http://www.w3.org/2000/svg" xmlns:xlink="http://www.w3.org/1999/xlink" width="132.952" height="128.529" viewBox="0 0 132.952 128.529"><defs><style>.a{fill:#efecfb;}.b{fill:#b9a8ff;}.c{fill:url(#a);}.d{fill:url(#b);}.e{fill:#3721a5;}.f{fill:#04e9d7;}.g{fill:#b1eef0;}</style><linearGradient id="a" x1="0.5" x2="0.5" y2="1" gradientUnits="objectBoundingBox"><stop offset="0" stop-color="#5a41e6"/><stop offset="1" stop-color="#140064"/></linearGradient><linearGradient id="b" x1="0.5" x2="0.5" y2="1" gradientUnits="objectBoundingBox"><stop offset="0" stop-color="#705ce4"/><stop offset="1" stop-color="#140064"/></linearGradient></defs><g transform="translate(1632 1091)"><ellipse class="a" cx="17.498" cy="11.689" rx="17.498" ry="11.689" transform="translate(-1583.021 -1066.508)"/><rect class="a" width="117.254" height="96.099" rx="48.049" transform="translate(-1624.15 -1058.57)"/><g transform="translate(-1606.732 -1044.384)"><path class="b" d="M486.4,504.711H448.7a22.425,22.425,0,0,0-22.359,22.359h0c0,12.3,10.061,26.6,22.359,26.6h37.7c12.3,0,22.359-14.3,22.359-26.6h0A22.425,22.425,0,0,0,486.4,504.711Z" transform="translate(-426.339 -504.711)"/><path class="c" d="M508.754,537.724v18.638a22.374,22.374,0,0,1-22.359,22.359H448.7a22.425,22.425,0,0,1-22.359-22.359V537.724a22.43,22.43,0,0,1,21.31-22.334c.347-.015.7-.025,1.05-.025h37.7a22.417,22.417,0,0,1,22.359,22.36Z" transform="translate(-426.339 -513.036)"/><path class="d" d="M492.845,577.857a22.1,22.1,0,0,1-6.45.954H448.7a22.425,22.425,0,0,1-22.359-22.36V537.814a22.431,22.431,0,0,1,21.31-22.335Z" transform="translate(-426.339 -513.126)"/></g><rect class="e" width="4.475" height="13.923" transform="translate(-1567.76 -1079.873)"/><path class="a" d="M1669.495,584.859h0v33.008h0a10.7,10.7,0,0,0,10.7-10.7v-11.6A10.7,10.7,0,0,0,1669.495,584.859Z" transform="translate(-3179.247 -1611.712)"/><path class="a" d="M1120.8,584.859h0v33.008h0a10.7,10.7,0,0,1-10.7-10.7v-11.6A10.7,10.7,0,0,1,1120.8,584.859Z" transform="translate(-2742.094 -1611.712)"/><circle class="a" cx="6.084" cy="6.084" r="6.084" transform="translate(-1572.827 -1088.244) rotate(-13.09)"/><g transform="translate(-1554.259 -1026.494)"><circle class="f" cx="5.733" cy="5.733" r="5.733" transform="matrix(0.596, -0.803, 0.803, 0.596, 0, 9.211)"/><circle class="g" cx="1.878" cy="1.878" r="1.878" transform="translate(4.19 5.095) rotate(-12.363)"/></g><g transform="translate(-1591.739 -1025.407)"><circle class="f" cx="5.733" cy="5.733" r="5.733" transform="translate(0 11.137) rotate(-76.234)"/><circle class="g" cx="1.878" cy="1.878" r="1.878" transform="translate(3.462 3.562)"/></g><path class="f" d="M1368.736,696.847a13.517,13.517,0,0,1-12.638-8.81,1.639,1.639,0,1,1,3.076-1.133,10.191,10.191,0,0,0,19.123,0,1.639,1.639,0,0,1,3.076,1.133A13.516,13.516,0,0,1,1368.736,696.847Z" transform="translate(-2934.259 -1690.618)"/></g></svg>