<svg xmlns="http://www.w3.org/2000/svg" xmlns:xlink="http://www.w3.org/1999/xlink" width="50" height="50" viewBox="0 0 50 50"><defs><style>.a{fill:url(#a);}</style><linearGradient id="a" x1="0.5" x2="0.5" y2="1" gradientUnits="objectBoundingBox"><stop offset="0" stop-color="#5a41e6"/><stop offset="1" stop-color="#140064"/></linearGradient></defs><g transform="translate(-768 -408)"><path class="a" d="M818,433a25,25,0,1,0-25,25c.146,0,.293,0,.439-.01V438.537h-5.371v-6.26h5.371v-4.609c0-5.342,3.262-8.252,8.027-8.252a43.575,43.575,0,0,1,4.815.244v5.586H803c-2.588,0-3.1,1.23-3.1,3.037v3.985h6.2l-.81,6.26H799.9v18.506A25.007,25.007,0,0,0,818,433Zm0,0"/></g></svg>