<svg xmlns="http://www.w3.org/2000/svg" xmlns:xlink="http://www.w3.org/1999/xlink" width="50" height="50" viewBox="0 0 50 50"><defs><style>.a{fill:url(#a);}</style><linearGradient id="a" x1="0.5" x2="0.5" y2="1" gradientUnits="objectBoundingBox"><stop offset="0" stop-color="#5a41e6"/><stop offset="1" stop-color="#140064"/></linearGradient></defs><g transform="translate(-834 -320)"><path class="a" d="M1050.57,531.785a4.785,4.785,0,1,1-4.785-4.785,4.785,4.785,0,0,1,4.785,4.785Zm0,0" transform="translate(-186.785 -186.785)"/><path class="a" d="M992.444,458.79a4.753,4.753,0,0,0-2.724-2.725,7.944,7.944,0,0,0-2.665-.494c-1.514-.069-1.968-.084-5.8-.084s-4.287.015-5.8.084a7.949,7.949,0,0,0-2.665.494,4.756,4.756,0,0,0-2.725,2.725,7.949,7.949,0,0,0-.494,2.666c-.069,1.514-.084,1.968-.084,5.8s.015,4.287.084,5.8a7.946,7.946,0,0,0,.494,2.665,4.754,4.754,0,0,0,2.725,2.725,7.935,7.935,0,0,0,2.666.494c1.514.069,1.967.084,5.8.084s4.288-.015,5.8-.084a7.935,7.935,0,0,0,2.666-.494,4.754,4.754,0,0,0,2.724-2.725,7.951,7.951,0,0,0,.494-2.665c.069-1.514.084-1.968.084-5.8s-.015-4.287-.084-5.8a7.935,7.935,0,0,0-.494-2.666Zm-11.191,15.838a7.371,7.371,0,1,1,7.371-7.371,7.372,7.372,0,0,1-7.371,7.371Zm7.663-13.312a1.723,1.723,0,1,1,1.723-1.723,1.723,1.723,0,0,1-1.723,1.723Zm0,0" transform="translate(-122.253 -122.257)"/><path class="a" d="M859,320a25,25,0,1,0,25,25,25,25,0,0,0-25-25Zm14.269,30.918a10.534,10.534,0,0,1-.667,3.485,7.34,7.34,0,0,1-4.2,4.2,10.539,10.539,0,0,1-3.484.667c-1.531.07-2.02.087-5.918.087s-4.388-.017-5.919-.087a10.539,10.539,0,0,1-3.484-.667,7.34,7.34,0,0,1-4.2-4.2,10.528,10.528,0,0,1-.667-3.484c-.071-1.531-.087-2.02-.087-5.919s.016-4.388.087-5.918a10.533,10.533,0,0,1,.667-3.485,7.345,7.345,0,0,1,4.2-4.2,10.541,10.541,0,0,1,3.485-.667c1.531-.07,2.02-.087,5.918-.087s4.388.017,5.918.087a10.543,10.543,0,0,1,3.485.666,7.342,7.342,0,0,1,4.2,4.2,10.531,10.531,0,0,1,.668,3.485c.07,1.531.086,2.02.086,5.918s-.016,4.388-.087,5.918Zm0,0"/></g></svg>