<svg xmlns="http://www.w3.org/2000/svg" xmlns:xlink="http://www.w3.org/1999/xlink" width="50" height="50" viewBox="0 0 50 50"><defs><style>.a{fill:url(#a);}</style><linearGradient id="a" x1="0.5" x2="0.5" y2="1" gradientUnits="objectBoundingBox"><stop offset="0" stop-color="#5a41e6"/><stop offset="1" stop-color="#140064"/></linearGradient></defs><path class="a" d="M729,344a25,25,0,1,0,25,25,25,25,0,0,0-25-25Zm-7.265,37.793h-6.089V363.475h6.089Zm-3.044-20.819h-.04a3.479,3.479,0,1,1,.04,0Zm25,20.819H737.6v-9.8c0-2.463-.882-4.142-3.085-4.142a3.333,3.333,0,0,0-3.124,2.227,4.168,4.168,0,0,0-.2,1.486v10.229H725.1s.08-16.6,0-18.318h6.088v2.594a6.045,6.045,0,0,1,5.487-3.024c4.006,0,7.009,2.618,7.009,8.244Zm0,0" transform="translate(-704 -344)"/></svg>