<svg xmlns="http://www.w3.org/2000/svg" xmlns:xlink="http://www.w3.org/1999/xlink" width="50" height="50" viewBox="0 0 50 50"><defs><style>.a{fill:url(#a);}</style><linearGradient id="a" x1="0.5" x2="0.5" y2="1" gradientUnits="objectBoundingBox"><stop offset="0" stop-color="#5a41e6"/><stop offset="1" stop-color="#140064"/></linearGradient></defs><g transform="translate(-768 -408)"><path class="a" d="M793,408a25,25,0,1,0,25,25,25,25,0,0,0-25-25Zm12.542,19.128v3.385a11.809,11.809,0,0,1-7.228-2.456l.024,10.419a8.727,8.727,0,0,1-2.618,6.211,8.911,8.911,0,0,1-4.977,2.489,9.129,9.129,0,0,1-1.344.1,8.94,8.94,0,0,1-6.321-2.588,8.76,8.76,0,0,1-.4-12.079,8.939,8.939,0,0,1,6.717-3,9.134,9.134,0,0,1,1.344.1v4.733a4.214,4.214,0,1,0,2.9,4l.006-6.977V418.724h4.662a7.216,7.216,0,0,0,7.22,7.149s.015,0,.013,0v1.256Zm0,0"/></g></svg>