<svg xmlns="http://www.w3.org/2000/svg" xmlns:xlink="http://www.w3.org/1999/xlink" width="50" height="50" viewBox="0 0 50 50"><defs><style>.a{fill:url(#a);}</style><linearGradient id="a" x1="0.5" x2="0.5" y2="1" gradientUnits="objectBoundingBox"><stop offset="0" stop-color="#5a41e6"/><stop offset="1" stop-color="#140064"/></linearGradient></defs><path class="a" d="M734.87,202.508a25,25,0,1,0,25,25,25,25,0,0,0-25-25ZM746.285,222q.017.369.016.742c0,7.583-5.772,16.326-16.327,16.327h0a16.242,16.242,0,0,1-8.8-2.578,11.668,11.668,0,0,0,1.369.079,11.514,11.514,0,0,0,7.127-2.456,5.745,5.745,0,0,1-5.361-3.986,5.717,5.717,0,0,0,2.592-.1,5.74,5.74,0,0,1-4.6-5.625c0-.026,0-.049,0-.073a5.7,5.7,0,0,0,2.6.717,5.743,5.743,0,0,1-1.777-7.661,16.292,16.292,0,0,0,11.828,6,5.741,5.741,0,0,1,9.778-5.233,11.512,11.512,0,0,0,3.644-1.393,5.761,5.761,0,0,1-2.523,3.174,11.444,11.444,0,0,0,3.3-.9A11.664,11.664,0,0,1,746.285,222Zm0,0" transform="translate(-709.87 -202.508)"/></svg>