<svg xmlns="http://www.w3.org/2000/svg" xmlns:xlink="http://www.w3.org/1999/xlink" width="50" height="50" viewBox="0 0 50 50"><defs><style>.a{fill:url(#a);}</style><linearGradient id="a" x1="0.5" x2="0.5" y2="1" gradientUnits="objectBoundingBox"><stop offset="0" stop-color="#5a41e6"/><stop offset="1" stop-color="#140064"/></linearGradient></defs><g transform="translate(-704 -344)"><path class="a" d="M928.113,561.406l8.132-4.684-8.132-4.684Zm0,0" transform="translate(-202.227 -187.723)"/><path class="a" d="M729,344a25,25,0,1,0,25,25,25,25,0,0,0-25-25Zm15.621,25.026a41.26,41.26,0,0,1-.643,7.515,3.914,3.914,0,0,1-2.754,2.753c-2.445.644-12.224.644-12.224.644s-9.754,0-12.224-.669a3.915,3.915,0,0,1-2.754-2.754,44.194,44.194,0,0,1,0-15.029,3.994,3.994,0,0,1,2.754-2.779c2.445-.644,12.224-.644,12.224-.644s9.779,0,12.224.669a3.915,3.915,0,0,1,2.754,2.754,39.154,39.154,0,0,1,.643,7.54Zm0,0"/></g></svg>